<svg xmlns="http://www.w3.org/2000/svg" width="16" height="16">
  <path d="M4.44 12.21c2.16 0 3.34-.99 3.34-2.47 0-1.31-.73-1.9-3.13-2.2-2.07-.27-2.57-.63-2.57-1.45 0-.84.71-1.46 2.07-1.46.86 0 1.39.2 1.76.48.34.26.52.52.65.85.13.31.26.4.49.4.22 0 .4-.17.4-.43 0-.32-.18-.77-.6-1.18-.42-.45-1.24-.96-2.64-.96-1.93 0-3.13.95-3.13 2.4 0 1.34.94 1.98 2.97 2.22 2.26.26 2.73.54 2.73 1.44 0 .91-.77 1.52-2.33 1.52-1.1 0-1.66-.21-2.04-.5-.4-.29-.6-.63-.78-1.02-.13-.25-.24-.34-.41-.34-.3 0-.46.2-.46.43 0 .42.22.9.64 1.3.5.5 1.34.97 3.04.97zm10.33-.06c.41 0 .65-.45.32-.82l-3.63-4.01 3.08-2.65c.39-.32.18-.8-.23-.8-.23 0-.4.14-.58.3l-4.57 4V4.38c0-.36-.2-.5-.48-.5-.27 0-.48.14-.48.5v7.24c0 .36.2.5.48.5.27 0 .48-.14.48-.5V9.3l1.59-1.36 3.54 3.91c.15.16.25.3.48.3z" aria-label="SK"/>
</svg>
