<?xml version="1.0" encoding="UTF-8" standalone="no"?>
<!-- Created with Inkscape (http://www.inkscape.org/) -->

<svg
   width="16"
   height="16"
   viewBox="0 0 16 16"
   version="1.1"
   id="svg1"
   xml:space="preserve"
   inkscape:version="1.3.2 (091e20ef0f, 2023-11-25)"
   sodipodi:docname="squirrel.svg"
   inkscape:export-filename="die-guten.png"
   inkscape:export-xdpi="96"
   inkscape:export-ydpi="96"
   xmlns:inkscape="http://www.inkscape.org/namespaces/inkscape"
   xmlns:sodipodi="http://sodipodi.sourceforge.net/DTD/sodipodi-0.dtd"
   xmlns="http://www.w3.org/2000/svg"
   xmlns:svg="http://www.w3.org/2000/svg"><sodipodi:namedview
     id="namedview1"
     pagecolor="#505050"
     bordercolor="#ffffff"
     borderopacity="1"
     inkscape:showpageshadow="0"
     inkscape:pageopacity="0"
     inkscape:pagecheckerboard="1"
     inkscape:deskcolor="#505050"
     inkscape:document-units="px"
     showguides="true"
     inkscape:lockguides="false"
     inkscape:zoom="45.254834"
     inkscape:cx="9.777961"
     inkscape:cy="7.8776115"
     inkscape:window-width="1920"
     inkscape:window-height="1373"
     inkscape:window-x="0"
     inkscape:window-y="0"
     inkscape:window-maximized="0"
     inkscape:current-layer="layer1"
     inkscape:export-bgcolor="#ffffff00"
     showgrid="false"><inkscape:grid
       id="grid1"
       units="px"
       originx="0"
       originy="0"
       spacingx="1.3326847"
       spacingy="1.3326847"
       empcolor="#0099e5"
       empopacity="0.30196078"
       color="#0099e5"
       opacity="0.14901961"
       empspacing="5"
       dotted="false"
       gridanglex="30"
       gridanglez="30"
       visible="false" /></sodipodi:namedview><defs
     id="defs1" /><g
     inkscape:label="Layer 1"
     inkscape:groupmode="layer"
     id="layer1"><path
       style="fill:#000000;fill-opacity:1;stroke:none;stroke-width:6.05917;stroke-linejoin:round;stroke-dasharray:none"
       d="m 15.925259,4.9299702 c -0.858696,-0.595242 -0.588707,-1.82287 -2.709991,-2.232766 -0.720189,-0.784243 -0.05922,-1.169843 -1.254666,-1.918204 -0.357065,0.73103 -0.369907,1.265442 -0.288662,2.479025 -0.971002,2.829322 -3.1295707,3.076976 -4.0032137,5.014804 -0.6269031,1.390535 -0.7472228,2.3562188 -0.0434,4.5757578 C 6.9098036,12.035377 6.5218758,11.080419 6.9739571,9.5885632 7.7832413,6.9179642 8.9708983,6.1360272 8.2191453,3.8069232 7.5993203,1.8865562 5.8920204,1.1266412 3.8743574,1.0944022 2.3036842,1.0692542 0.52345945,2.4490072 0.14320275,3.9731632 c -0.3772311,1.512026 0.3689429,4.319462 1.92618035,4.259885 -0.7736599,-2.571106 -0.071226,-4.28453 1.4810351,-4.080324 1.4743179,0.193965 1.7263397,1.465817 0.277878,4.161565 -1.7129628,3.1880238 2.3215196,6.3510178 4.1635401,6.3740768 0.858175,0.831565 1.423496,0.201931 1.881246,0.129532 0.2311977,-0.03658 0.3445667,0.361904 0.5749827,0.403102 l 3.819526,-0.01369 c 0.02363,-0.879295 -0.168512,-1.018179 -1.005777,-1.058313 -0.943172,-0.04509 -1.521759,0.589888 -1.93753,0.09465 2.354964,-1.617594 0.855892,-3.455693 0.865617,-3.820748 0.01255,-0.4718412 0.960781,-0.9284978 1.624572,-1.3298088 0.528215,-0.319339 0.494833,-1.255043 1.049679,-1.525498 0.416465,-0.203035 0.522126,0.640857 1.010279,-0.08985 0.26393,-0.395104 -0.154296,-1.015521 -0.955681,-1.057654 -0.569672,-0.02972 -0.924746,0.978116 -1.497921,0.610725 -0.302344,-0.193812 -0.305316,-1.254414 0.04913,-1.19659 0.564513,0.09207 1.70098,0.134059 2.455291,-0.904364 z"
       id="path4"
       sodipodi:nodetypes="ccccscsssscsscsccscssssssscc" /></g></svg>
